<svg xmlns="http://www.w3.org/2000/svg" viewBox="-80 -150 800 730"><polyline fill="red" stroke="#ff0" points="28.7 412.9 66.7 365.9 139.7 245.9 246.7 418.9 396.7 221.9 507.7 -41.1 668.7 267.9 613.7 410.9 529.7 502.9 470.7 537.9 367.7 563.9 195.7 547.9" opacity=".22"/><circle r="350" stroke-opacity="1" cx="322.3" cy="213.3" fill="#0ff" stroke="none" stroke-width="25" fill-opacity=".22"/><circle r="350" stroke-opacity="1" cx="322.3" cy="213.3" fill="none" stroke="#009292" stroke-width="25" fill-opacity=".33"/><path fill="#fc60a8" d="M614.2 91l-150-137.6-21.1 23L568.1 91H75.4l125-114.7-21.1-23L29.3 91h-.1v90.7c0 41 39.5 74.4 88 74.4h92.5c48.5 0 88-33.4 88-74.4v-59.6h48v59.6c0 41 39.5 74.4 88 74.4h92.5c48.5 0 88-33.4 88-74.4V91z" stroke-linejoin="bevel"/><g><circle r="25" stroke-opacity="1" cx="75" cy="250" fill="#b8c959" stroke="#f0f"/><circle r="25" stroke-opacity="1" cx="75" cy="315" fill="#b8c959" stroke="#f0f"/><circle r="25" stroke-opacity="1" cx="75" cy="380" fill="#b8c959" stroke="#f0f"/><line x2="550" stroke="#b8c959" y2="250" stroke-width="55" stroke-linecap="round" x1="150" y1="250"/><line x2="550" stroke="#b8c959" y2="315" stroke-width="55" stroke-linecap="round" x1="150" y1="315"/><line x2="550" stroke="#b8c959" y2="380" stroke-width="55" stroke-linecap="round" x1="150" y1="380"/></g><path d="T159.7 201.9H642.7v382C642.7 583.9 642.7 583.9 642.7 583.9c0 0 0 0 0 0a1 1 0 000 0s0 0 0 0h-613z" fill="red"/></svg>